<?xml version="1.0" encoding="UTF-8"?>
<svg width="1000px" height="306px" viewBox="0 0 1000 306" version="1.1" xmlns="http://www.w3.org/2000/svg" xmlns:xlink="http://www.w3.org/1999/xlink">
    <!-- Generator: Sketch 50.2 (55047) - http://www.bohemiancoding.com/sketch -->
    <title>Group 2</title>
    <desc>Created with Sketch.</desc>
    <defs>
        <path d="M27.4254386,20.3770704 C9.72368421,35.3510634 0.361842105,57.2743732 0.361842105,83.7597465 L0.361842105,196.657127 L44.5679825,196.657127 L44.5679825,83.0589014 C44.5679825,68.8755493 48.8070175,58.0080704 57.1513158,50.7477535 C66.4013158,42.7055563 80.8201754,39.2385634 98.7697368,40.7738521 L105.594298,41.3454789 L105.594298,1.92075352 L100.041667,1.3031338 C95.4649123,0.80378169 90.9605263,0.556295775 86.5526316,0.556295775 C63.3442982,0.556295775 42.747807,7.40924648 27.4254386,20.3770704" id="path-1"></path>
        <path d="M106.050439,1.64041549 C48.6600877,1.64041549 1.96929825,45.9863873 1.96929825,100.494613 C1.96929825,155.000648 48.6600877,199.34443 106.050439,199.34443 C163.438596,199.34443 210.127193,155.000648 210.127193,100.494613 C210.127193,45.9863873 163.438596,1.64041549 106.050439,1.64041549 Z M47.247807,100.494613 C47.247807,69.6508592 73.5745614,44.6460211 106.048246,44.6460211 C138.524123,44.6460211 164.850877,69.6508592 164.850877,100.494613 C164.850877,131.336176 138.524123,156.341014 106.048246,156.341014 C73.5745614,156.341014 47.247807,131.336176 47.247807,100.494613 Z" id="path-3"></path>
        <path d="M105.828947,1.64041549 C48.4407895,1.64041549 1.75,45.9863873 1.75,100.494613 C1.75,155.000648 48.4407895,199.34443 105.828947,199.34443 C133.429825,199.34443 158.541667,189.074859 177.184211,172.364085 L146.010965,141.229042 C135.497807,150.594085 121.377193,156.341014 105.828947,156.341014 C90.5350877,156.341014 76.6074561,150.791197 66.1513158,141.704303 L208.692982,85.3826408 C208.682018,85.323507 208.66886,85.2643732 208.657895,85.2052394 L208.609649,84.948993 C200.734649,37.8040211 157.651316,1.64041549 105.828947,1.64041549 Z M47.0307018,100.494613 C47.0307018,69.6508592 73.3552632,44.6460211 105.828947,44.6460211 C124.122807,44.6460211 140.462719,52.5809014 151.245614,65.0230915 L47.2324561,104.951549 C47.1096491,103.479775 47.0307018,101.994859 47.0307018,100.494613 Z" id="path-5"></path>
        <path d="M104.08114,1.64041549 C46.6885965,1.64041549 0,45.9863873 0,100.494613 C0,155.000648 46.6885965,199.34443 104.08114,199.34443 L164.741228,198.847268 L208.175439,198.847268 L208.175439,103.076789 C208.175439,102.520493 208.142544,101.970768 208.133772,101.414472 C208.135965,101.107852 208.155702,100.803423 208.155702,100.494613 C208.155702,45.9863873 161.469298,1.64041549 104.08114,1.64041549 Z M45.2785088,100.494613 C45.2785088,69.6508592 71.6030702,44.6460211 104.078947,44.6460211 C136.552632,44.6460211 162.879386,69.6508592 162.879386,100.494613 L162.879386,156.341014 L104.078947,156.341014 C71.6030702,156.341014 45.2785088,131.336176 45.2785088,100.494613 Z" id="path-7"></path>
        <path d="M206.046053,9.34533099 C194.907895,16.3143592 178.304825,22.8234577 154.528509,32.219162 L112.493421,48.2553732 L104.087719,51.4004155 C81.0921053,59.9485352 42.6162281,74.2567254 22.2609649,101.090331 C5.51096491,123.145049 2.5745614,149.183634 2.08552632,159.354648 L2.03070175,160.495711 L47.0635965,160.495711 L47.1469298,159.486056 C47.7565789,151.870937 50.0789474,137.389725 58.7565789,125.95062 C71.3662281,109.31869 103.313596,97.4371761 120.559211,91.0200634 L134.677632,85.7549648 L176.657895,69.6245775 C199.552632,60.4697887 215.600877,52.4385423 227.97807,45.6293944 C234.822368,41.8667324 242.039474,36.8162676 248.921053,30.6729225 L218.296053,0.0876056338 C214.039474,3.8984507 209.734649,7.03692254 206.046053,9.34533099" id="path-9"></path>
        <linearGradient x1="96.8819758%" y1="89.3354118%" x2="29.1840749%" y2="20.1576248%" id="linearGradient-11">
            <stop stop-color="#8C8C8C" offset="0%"></stop>
            <stop stop-color="#D2D2D2" offset="100%"></stop>
        </linearGradient>
        <linearGradient x1="89.8613361%" y1="9.98424614%" x2="0%" y2="100%" id="linearGradient-12">
            <stop stop-color="#9C9C9C" offset="0%"></stop>
            <stop stop-color="#7E7E7E" offset="39.0229854%"></stop>
            <stop stop-color="#D2D2D2" offset="100%"></stop>
        </linearGradient>
    </defs>
    <g id="Page-1" stroke="none" stroke-width="1" fill="none" fill-rule="evenodd">
        <g id="aergo_logo" transform="translate(-250.000000, -972.000000)">
            <g id="Group-2" transform="translate(250.000000, 970.000000)">
                <g id="Group-3" transform="translate(456.140351, 2.737676)">
                    <mask id="mask-2" fill="white">
                        <use xlink:href="#path-1"></use>
                    </mask>
                    <g id="Clip-2"></g>
                </g>
                <g id="Group-6" transform="translate(789.473684, 0.547535)">
                    <mask id="mask-4" fill="white">
                        <use xlink:href="#path-3"></use>
                    </mask>
                    <g id="Clip-5"></g>
                </g>
                <g id="Group-9" transform="translate(228.070175, 0.547535)">
                    <mask id="mask-6" fill="white">
                        <use xlink:href="#path-5"></use>
                    </mask>
                    <g id="Clip-8"></g>
                </g>
                <g id="Group-12" transform="translate(0.000000, 0.547535)">
                    <mask id="mask-8" fill="white">
                        <use xlink:href="#path-7"></use>
                    </mask>
                    <g id="Clip-11"></g>
                </g>
                <g id="Group-17" transform="translate(489.035088, 147.286972)">
                    <mask id="mask-10" fill="white">
                        <use xlink:href="#path-9"></use>
                    </mask>
                    <g id="Clip-16"></g>
                </g>
                <path d="M669.489912,45.0496641 C690.055702,45.0496641 706.494298,56.2894669 712.533772,62.7832345 C720.200439,71.0225444 732.419737,86.3688613 727.035965,115.979565 C724.737719,128.616678 716.154386,139.464446 707.332018,147.373044 L737.957018,177.960551 C753.603947,163.991833 768.514035,143.358516 772.347368,120.029136 C774.910965,104.417812 777.810088,79.0472204 755.152193,45.3978965 C740.772807,24.0418331 712.06886,10.4082063 699.978947,6.8776993 C674.340789,-0.610392254 644.623684,4.90438239 639.660965,6.33892465 C619.213596,12.2435444 603.880263,21.520981 592.621491,32.8133472 L624.783772,64.9317627 C633.549123,53.9854387 647.599561,45.6256711 669.489912,45.0496641" id="Fill-13" fill="#F73AA9"></path>
                <path d="M483.565789,23.1147465 C465.864035,38.0887394 456.502193,60.0120493 456.502193,86.4974225 L456.502193,199.394803 L500.708333,199.394803 L500.708333,85.7965775 C500.708333,71.6132254 504.947368,60.7457465 513.291667,53.4854296 C522.541667,45.4432324 536.960526,41.9762394 554.910088,43.5115282 L561.734649,44.0831549 L561.734649,4.65842958 L556.182018,4.04080986 C551.605263,3.54145775 547.100877,3.29397183 542.692982,3.29397183 C519.484649,3.29397183 498.888158,10.1469225 483.565789,23.1147465" id="Fill-1" fill="url(#linearGradient-11)"></path>
                <path d="M895.524123,2.1879507 C838.133772,2.1879507 791.442982,46.5339225 791.442982,101.042148 C791.442982,155.548183 838.133772,199.891965 895.524123,199.891965 C952.912281,199.891965 999.600877,155.548183 999.600877,101.042148 C999.600877,46.5339225 952.912281,2.1879507 895.524123,2.1879507 Z M836.721491,101.042148 C836.721491,70.1983944 863.048246,45.1935563 895.52193,45.1935563 C927.997807,45.1935563 954.324561,70.1983944 954.324561,101.042148 C954.324561,131.883711 927.997807,156.888549 895.52193,156.888549 C863.048246,156.888549 836.721491,131.883711 836.721491,101.042148 Z" id="Fill-4" fill="url(#linearGradient-11)"></path>
                <path d="M333.899123,2.1879507 C276.510965,2.1879507 229.820175,46.5339225 229.820175,101.042148 C229.820175,155.548183 276.510965,199.891965 333.899123,199.891965 C361.5,199.891965 386.611842,189.622394 405.254386,172.91162 L374.08114,141.776577 C363.567982,151.14162 349.447368,156.888549 333.899123,156.888549 C318.605263,156.888549 304.677632,151.338732 294.221491,142.251838 L436.763158,85.9301761 C436.752193,85.8710423 436.739035,85.8119085 436.72807,85.7527746 L436.679825,85.4965282 C428.804825,38.3515563 385.721491,2.1879507 333.899123,2.1879507 Z M275.100877,101.042148 C275.100877,70.1983944 301.425439,45.1935563 333.899123,45.1935563 C352.192982,45.1935563 368.532895,53.1284366 379.315789,65.5706268 L275.302632,105.499085 C275.179825,104.02731 275.100877,102.542394 275.100877,101.042148 Z" id="Fill-7" fill="url(#linearGradient-11)"></path>
                <path d="M104.08114,2.1879507 C46.6885965,2.1879507 0,46.5339225 0,101.042148 C0,155.548183 46.6885965,199.891965 104.08114,199.891965 L164.741228,199.394803 L208.175439,199.394803 L208.175439,103.624324 C208.175439,103.068028 208.142544,102.518303 208.133772,101.962007 C208.135965,101.655387 208.155702,101.350958 208.155702,101.042148 C208.155702,46.5339225 161.469298,2.1879507 104.08114,2.1879507 Z M45.2785088,101.042148 C45.2785088,70.1983944 71.6030702,45.1935563 104.078947,45.1935563 C136.552632,45.1935563 162.879386,70.1983944 162.879386,101.042148 L162.879386,156.888549 L104.078947,156.888549 C71.6030702,156.888549 45.2785088,131.883711 45.2785088,101.042148 Z" id="Fill-10" fill="url(#linearGradient-11)"></path>
                <path d="M695.08114,156.632303 C683.942982,163.601331 667.339912,170.11043 643.563596,179.506134 L601.528509,195.542345 L593.122807,198.687387 C570.127193,207.235507 531.651316,221.543697 511.296053,248.377303 C494.546053,270.432021 491.609649,296.470606 491.120614,306.64162 L491.065789,307.782683 L536.098684,307.782683 L536.182018,306.773028 C536.791667,299.157908 539.114035,284.676697 547.791667,273.237592 C560.401316,256.605662 592.348684,244.724148 609.594298,238.307035 L623.712719,233.041937 L665.692982,216.911549 C688.587719,207.756761 704.635965,199.725514 717.013158,192.916366 C723.857456,189.153704 731.074561,184.103239 737.95614,177.959894 L707.33114,147.374577 C703.074561,151.185423 698.769737,154.323894 695.08114,156.632303" id="Fill-15" fill="url(#linearGradient-12)"></path>
                <path d="M566.598684,116.447599 C570.798246,157.503979 599.565789,192.20238 601.528509,195.542345 L623.712719,233.041937 C629.914474,243.548042 635.333333,252.814528 639.276316,259.877732 C651.442982,281.728768 653.16886,298.579711 653.122807,306.683232 L653.116228,307.782683 L698.103158,307.782683 L698.10307,306.689803 C698.122807,291.919493 694.83114,268.349197 679.035088,240.000014 C675.561404,233.764683 670.964912,225.860465 665.692982,216.911549 L643.563596,179.506134 C640.607456,174.214754 616.66886,143.561542 612.217105,111.918387 C610.622807,100.580028 612.539474,80.2248592 624.782895,64.9311056 L592.622807,32.8126901 C569.513158,55.9887606 563.657895,87.6910493 566.598684,116.447599" id="Fill-18" fill="url(#linearGradient-11)"></path>
            </g>
        </g>
    </g>
</svg>