<?xml version="1.0" encoding="UTF-8"?>
<svg width="2100px" height="2100px" viewBox="0 0 2100 2100" version="1.1" xmlns="http://www.w3.org/2000/svg" xmlns:xlink="http://www.w3.org/1999/xlink">
    <!-- Generator: Sketch 50.2 (55047) - http://www.bohemiancoding.com/sketch -->
    <title>AERGO_New_Branding_v3-3 Copy 2</title>
    <desc>Created with Sketch.</desc>
    <defs>
        <linearGradient x1="67.8578231%" y1="64.8755748%" x2="19.723595%" y2="16.8080857%" id="linearGradient-1">
            <stop stop-color="#FFFFFF" offset="0%"></stop>
            <stop stop-color="#C0C0C0" offset="100%"></stop>
        </linearGradient>
        <linearGradient x1="59.2740349%" y1="35.7006024%" x2="29.1840749%" y2="20.1576248%" id="linearGradient-2">
            <stop stop-color="#1B1B1B" offset="0%"></stop>
            <stop stop-color="#4F4F4F" offset="100%"></stop>
        </linearGradient>
        <linearGradient x1="100%" y1="92.5215965%" x2="29.1840749%" y2="20.1576248%" id="linearGradient-3">
            <stop stop-color="#1B1B1B" offset="0%"></stop>
            <stop stop-color="#4F4F4F" offset="100%"></stop>
        </linearGradient>
    </defs>
    <g id="AERGO_New_Branding_v3-3-Copy-2" stroke="none" stroke-width="1" fill="none" fill-rule="evenodd">
        <circle id="Oval" fill="url(#linearGradient-1)" cx="1050" cy="1050" r="1050"></circle>
        <g id="Group-4" transform="translate(526.000000, 485.000000)">
            <path d="M662.264862,155.641404 C738.323676,155.641404 799.108957,197.283413 821.44526,221.331191 C849.801235,251.861668 894.992478,308.707703 875.086187,418.388893 C866.589884,465.213562 834.836553,505.398129 802.209117,534.698526 L915.469851,648 C973.329792,596.24918 1028.47418,519.826796 1042.64634,433.400537 C1052.1333,375.575102 1062.84983,281.587638 979.058096,156.929782 C925.877531,77.8140475 819.732014,27.3107971 775.024443,14.2288055 C680.201503,-13.5092143 570.308988,6.92411049 551.958604,12.235026 C476.336843,34.1141324 419.636548,68.4864242 378,110.309155 L496.936591,229.29465 C529.354242,188.742808 581.311059,157.775098 662.264862,155.641404" id="Fill-13" fill="#F73AA9"></path>
            <path d="M756.101385,569.283688 C714.82477,595.099893 653.283604,619.196961 565.164922,653.987648 L409.384829,713.376576 L378.22297,725.02592 C293.006733,756.675539 150.413199,809.654122 74.9730023,909.020289 C12.8945622,990.688077 2.00893541,1087.11131 0.192717641,1124.775 L0,1129 L166.887637,1129 L167.208833,1125.26452 C169.457206,1097.06483 178.06526,1043.43356 210.231587,1001.08449 C256.956855,939.492735 375.361405,895.494462 439.279423,871.729567 L491.593503,852.236292 L647.180878,792.503537 C732.03504,758.598642 791.508872,728.854644 837.38151,703.650335 C862.755999,689.716577 889.491192,671.015854 915,648.259131 L801.500989,535 C785.733182,549.108585 769.772658,560.734619 756.101385,569.283688" id="Fill-15" fill="url(#linearGradient-2)"></path>
            <path d="M280.604983,421.549346 C296.20145,573.992875 403.041634,702.840613 410.333641,715.246226 L492.716928,854.483591 C515.763414,893.482676 535.883733,927.900507 550.532122,954.125843 C595.71213,1035.26194 602.120434,1097.83928 601.950716,1127.93297 L601.927307,1132 L769,1132 L768.9997,1127.9505 C769.069928,1073.10402 756.861962,985.586896 698.186475,880.311574 C685.293786,857.159885 668.216679,827.819998 648.634774,794.588384 L566.444614,655.695781 C555.465638,636.044309 466.568705,522.225885 450.030013,404.737784 C444.1016,362.629992 451.223889,287.051006 496.702366,230.264506 L377.250404,111 C291.425946,197.056265 269.690383,314.772261 280.604983,421.549346" id="Fill-18" fill="url(#linearGradient-3)"></path>
        </g>
    </g>
</svg>